<?xml version="1.0" standalone="no"?>
<!DOCTYPE svg PUBLIC "-//W3C//DTD SVG 20010904//EN"
 "http://www.w3.org/TR/2001/REC-SVG-20010904/DTD/svg10.dtd">
<svg version="1.0" xmlns="http://www.w3.org/2000/svg"
 width="962.000000pt" height="719.000000pt" viewBox="0 0 962.000000 719.000000"
 preserveAspectRatio="xMidYMid meet">

<g transform="translate(0.000000,719.000000) scale(0.100000,-0.100000)"
fill="#000000" stroke="none">
<path d="M0 3595 l0 -3595 4810 0 4810 0 0 3595 0 3595 -4810 0 -4810 0 0
-3595z m6870 3443 c1 -2 31 -169 69 -371 37 -202 65 -370 62 -371 -12 -8 -742
-139 -746 -134 -3 3 6 36 20 74 13 38 76 219 139 403 64 184 117 335 119 337
6 7 337 67 337 62z m-970 -181 c0 -4 -273 -769 -285 -800 -9 -21 11 -16 -338
-81 -277 -51 -287 -52 -281 -32 11 36 274 800 277 802 3 3 589 112 610 113 9
0 17 0 17 -2z m-1262 -239 c-110 -317 -284 -796 -292 -804 -11 -12 -516 -107
-524 -99 -6 6 267 797 279 809 7 8 480 102 528 105 7 1 11 -5 9 -11z m-1192
-270 c-13 -35 -79 -218 -146 -408 -68 -190 -124 -346 -124 -347 -4 -5 -567
-105 -571 -101 -4 3 270 806 277 814 6 5 531 102 560 103 l27 1 -23 -62z
m-1196 -161 c0 -8 -281 -794 -289 -807 -5 -9 -43 -21 -97 -31 l-89 -17 303 -1
c166 -1 302 -5 302 -9 0 -4 -96 -174 -214 -377 l-214 -370 -111 -3 -112 -3 1
403 1 403 -55 300 c-31 165 -60 322 -65 348 -6 35 -5 50 3 52 6 2 126 25 266
50 140 26 273 50 295 55 44 9 75 12 75 7z m1370 -863 c0 -3 -97 -174 -217
-380 l-216 -374 -295 0 -294 0 25 43 c13 23 107 188 207 367 100 179 187 331
193 338 7 9 80 12 303 12 162 0 294 -2 294 -6z m1186 -11 c-7 -17 -69 -126
-304 -533 l-119 -205 -272 -3 c-150 -1 -271 2 -269 6 1 5 97 176 213 380 l209
372 274 0 c256 0 274 -1 268 -17z m1284 8 c0 -10 -416 -730 -429 -744 -4 -4
-147 -6 -318 -5 l-311 3 207 365 c113 201 210 371 214 378 10 15 637 18 637 3z
m990 -431 l0 -440 242 0 243 0 442 -442 443 -443 0 -602 0 -603 -326 0 c-307
0 -326 1 -319 18 3 9 12 50 18 90 l12 72 217 0 218 0 0 477 0 477 -387 388
-388 388 -297 0 -298 0 0 150 0 150 -294 2 -293 3 206 365 c113 201 210 371
214 378 6 9 53 12 178 12 l169 0 0 -440z m-644 -686 c41 -30 50 -49 39 -81 -7
-18 -25 -36 -55 -50 l-44 -23 -2281 0 c-1453 0 -2292 4 -2314 10 -46 13 -81
48 -81 80 0 32 16 53 55 74 27 14 257 15 2342 13 l2312 -2 27 -21z m1302 -372
c182 -181 332 -331 332 -335 0 -4 -262 -6 -582 -5 l-583 3 -3 333 -2 332 252
-1 253 0 333 -327z m-1325 -156 c97 -40 88 -125 -18 -155 -30 -9 -715 -11
-2625 -9 -2465 3 -2587 4 -2621 21 -73 36 -71 103 3 137 42 19 95 20 2636 20
2165 0 2598 -2 2625 -14z m1 -536 c39 -14 66 -47 66 -79 0 -36 -45 -77 -93
-86 -18 -3 -924 -4 -2014 -3 l-1982 3 -28 21 c-40 30 -51 66 -29 99 38 58 -88
54 2068 55 1246 0 1996 -4 2012 -10z m896 -60 c102 -16 222 -80 300 -159 213
-216 211 -549 -5 -766 -81 -82 -143 -118 -251 -145 -98 -25 -170 -25 -270 0
-364 93 -526 514 -320 829 51 77 90 116 166 163 120 76 238 100 380 78z m-869
-523 c27 -18 35 -31 37 -59 4 -43 -23 -73 -79 -88 -24 -7 -593 -9 -1621 -8
-1507 3 -1585 4 -1611 21 -58 38 -60 103 -4 137 31 20 59 20 1638 20 l1606 0
34 -23z m-1037 -1428 c50 -19 116 -59 116 -71 0 -4 -27 -36 -60 -72 l-61 -64
-57 26 c-96 44 -153 29 -168 -44 -9 -49 31 -86 163 -151 125 -62 170 -103 198
-183 46 -129 -25 -279 -163 -347 -50 -25 -68 -28 -152 -28 -88 0 -99 2 -155
33 -33 18 -77 47 -98 65 l-37 32 66 77 66 78 30 -25 c43 -36 102 -65 133 -65
41 0 81 26 99 64 31 66 -10 110 -152 168 -150 60 -201 125 -202 256 0 78 13
122 54 175 31 40 108 84 168 97 57 11 151 2 212 -21z m-3062 -8 c133 -52 237
-165 279 -303 28 -92 23 -244 -10 -330 -47 -121 -149 -222 -271 -269 -69 -27
-204 -36 -282 -20 -190 40 -331 196 -360 398 -33 241 98 461 320 534 80 27
243 22 324 -10z m-1472 15 c0 -9 167 -537 172 -541 2 -3 43 118 89 268 l85
272 120 0 119 0 57 -445 c31 -245 57 -455 58 -467 0 -22 -3 -23 -95 -23 l-94
0 -5 33 c-3 17 -22 162 -41 322 -20 159 -37 291 -39 292 -1 2 -33 -95 -70
-214 -38 -120 -84 -266 -103 -325 l-34 -108 -47 0 -47 0 -39 128 c-22 70 -69
219 -106 332 l-66 204 -37 -319 c-20 -176 -37 -326 -37 -332 0 -10 -27 -13
-100 -13 -55 0 -100 2 -100 5 0 3 22 187 50 408 27 221 52 430 56 465 l7 62
123 0 c68 0 124 -2 124 -4z m2145 -299 c63 -164 115 -303 117 -309 3 -9 103
243 221 560 l20 52 103 0 104 0 -25 -67 c-14 -38 -94 -249 -178 -471 l-152
-403 -90 3 -89 3 -173 455 c-94 250 -172 461 -172 468 -1 10 23 12 100 10
l101 -3 113 -298z m885 -167 l0 -470 -105 0 -105 0 0 470 0 470 105 0 105 0 0
-470z m720 380 l0 -90 -165 0 -165 0 0 -95 0 -95 165 0 165 0 0 -95 0 -95
-165 0 -165 0 0 -95 0 -95 165 0 165 0 0 -95 0 -95 -265 0 -265 0 0 470 0 470
265 0 265 0 0 -90z m1280 -90 l0 -180 165 0 165 0 0 180 0 180 100 0 100 0 0
-470 0 -470 -100 0 -100 0 0 185 0 185 -165 0 -165 0 0 -185 0 -185 -105 0
-105 0 0 470 0 470 105 0 105 0 0 -180z m1322 -83 c59 -144 145 -355 192 -469
l85 -208 -103 0 -103 0 -39 93 -39 92 -179 0 -180 0 -36 -90 -36 -90 -103 -3
c-81 -2 -102 0 -98 10 2 7 87 219 188 471 l183 457 80 0 81 0 107 -263z m858
244 c116 -44 170 -123 170 -248 0 -98 -27 -169 -85 -222 -25 -23 -48 -41 -52
-41 -5 0 -14 -4 -22 -9 -10 -7 16 -53 118 -202 l131 -194 -107 -3 c-59 -1
-112 -1 -120 2 -7 3 -65 84 -129 181 -65 96 -123 175 -131 175 -10 0 -13 -36
-13 -180 l0 -180 -100 0 -100 0 0 470 0 470 195 0 c168 0 202 -3 245 -19z
m950 -71 l0 -90 -162 -2 -163 -3 -3 -92 -3 -93 166 0 165 0 0 -95 0 -95 -165
0 -165 0 0 -95 0 -95 165 0 165 0 0 -95 0 -95 -265 0 -265 0 0 470 0 470 265
0 265 0 0 -90z"/>
<path d="M7135 2896 c-112 -28 -198 -99 -249 -206 -26 -57 -30 -76 -30 -150 0
-74 4 -93 31 -152 39 -84 97 -141 181 -181 59 -28 77 -32 152 -32 75 0 93 4
152 32 84 39 142 97 181 181 28 59 32 77 32 152 0 74 -4 93 -31 150 -51 107
-141 180 -253 206 -67 16 -100 16 -166 0z m178 -92 c117 -40 193 -157 184
-284 -5 -75 -24 -119 -76 -173 -60 -64 -103 -82 -201 -82 -98 0 -141 18 -201
82 -52 54 -71 98 -76 173 -7 92 22 164 88 224 81 73 182 94 282 60z"/>
<path d="M2052 939 c-54 -27 -106 -88 -126 -147 -21 -61 -21 -189 1 -244 42
-109 127 -168 243 -168 109 1 185 52 231 154 68 155 9 345 -126 407 -58 27
-167 26 -223 -2z"/>
<path d="M6987 712 c-25 -64 -49 -125 -53 -134 -6 -16 3 -18 100 -18 58 0 106
3 106 7 0 6 -100 255 -104 260 -2 2 -23 -50 -49 -115z"/>
<path d="M7840 850 l0 -120 43 0 c93 0 142 29 156 93 20 84 -40 147 -140 147
l-59 0 0 -120z"/>
</g>
</svg>
